<?xml version="1.0" encoding="UTF-8" standalone="no"?>
<!-- Created with Inkscape (http://www.inkscape.org/) -->

<svg
   xmlns:dc="http://purl.org/dc/elements/1.1/"
   xmlns:cc="http://creativecommons.org/ns#"
   xmlns:rdf="http://www.w3.org/1999/02/22-rdf-syntax-ns#"
   xmlns:svg="http://www.w3.org/2000/svg"
   xmlns="http://www.w3.org/2000/svg"
   xmlns:sodipodi="http://sodipodi.sourceforge.net/DTD/sodipodi-0.dtd"
   xmlns:inkscape="http://www.inkscape.org/namespaces/inkscape"
   width="50"
   height="120"
   id="svg7788"
   version="1.1"
   inkscape:version="0.48.3.1 r9886"
   sodipodi:docname="cities.svg">
  <defs
     id="defs7790" />
  <sodipodi:namedview
     id="base"
     pagecolor="#ffffff"
     bordercolor="#666666"
     borderopacity="1.0"
     inkscape:pageopacity="0.0"
     inkscape:pageshadow="2"
     inkscape:zoom="5.6568542"
     inkscape:cx="-1.9530813"
     inkscape:cy="23.362119"
     inkscape:document-units="px"
     inkscape:current-layer="layer14"
     showgrid="true"
     inkscape:snap-grids="false"
     showguides="true"
     inkscape:window-width="1440"
     inkscape:window-height="876"
     inkscape:window-x="0"
     inkscape:window-y="24"
     inkscape:window-maximized="1">
    <inkscape:grid
       type="xygrid"
       id="grid7796"
       empspacing="5"
       visible="true"
       enabled="true"
       snapvisiblegridlinesonly="false"
       dotted="false"
       spacingx="50px"
       spacingy="60px"
       color="#ff00eb"
       opacity="0.24705882" />
    <inkscape:grid
       type="xygrid"
       id="grid8311"
       empspacing="5"
       visible="true"
       enabled="true"
       snapvisiblegridlinesonly="true" />
  </sodipodi:namedview>
  <metadata
     id="metadata7793">
    <rdf:RDF>
      <cc:Work
         rdf:about="">
        <dc:format>image/svg+xml</dc:format>
        <dc:type
           rdf:resource="http://purl.org/dc/dcmitype/StillImage" />
        <dc:title></dc:title>
      </cc:Work>
    </rdf:RDF>
  </metadata>
  <g
     inkscape:label="Tank"
     inkscape:groupmode="layer"
     id="layer1"
     transform="translate(0,-932.36218)">
    <rect
       style="opacity:1;fill:#4e9a06;fill-opacity:1;stroke:#73d216;stroke-width:3;stroke-miterlimit:4;stroke-opacity:1;stroke-dasharray:none;stroke-dashoffset:0"
       id="rect7801"
       width="20.203051"
       height="48.234787"
       x="2"
       y="942.12738"
       rx="10.101525"
       ry="10.101525" />
  </g>
  <g
     inkscape:groupmode="layer"
     id="layer10"
     inkscape:label="Legs">
    <path
       style="fill:none;stroke:#555753;stroke-width:1px;stroke-linecap:butt;stroke-linejoin:miter;stroke-opacity:1"
       d="m 40,49 4,10"
       id="path8317"
       inkscape:connector-curvature="0" />
    <path
       style="fill:none;stroke:#555753;stroke-width:1px;stroke-linecap:butt;stroke-linejoin:miter;stroke-opacity:1"
       d="M 26,49 22,59"
       id="path8319"
       inkscape:connector-curvature="0"
       sodipodi:nodetypes="cc" />
    <path
       style="fill:none;stroke:#555753;stroke-width:1px;stroke-linecap:butt;stroke-linejoin:miter;stroke-opacity:1"
       d="M 22,59 31,49"
       id="path8321"
       inkscape:connector-curvature="0" />
    <path
       style="fill:none;stroke:#555753;stroke-width:1px;stroke-linecap:butt;stroke-linejoin:miter;stroke-opacity:1"
       d="M 44,59 35,49"
       id="path8323"
       inkscape:connector-curvature="0"
       sodipodi:nodetypes="cc" />
  </g>
  <g
     inkscape:groupmode="layer"
     id="layer9"
     inkscape:label="Filter"
     style="opacity:1">
    <rect
       style="fill:#555753;fill-opacity:1;stroke:#888a85;stroke-width:3;stroke-miterlimit:4;stroke-opacity:1;stroke-dasharray:none;stroke-dashoffset:0"
       id="rect8314"
       width="30"
       height="16"
       x="18"
       y="33" />
  </g>
  <g
     inkscape:groupmode="layer"
     id="layer11"
     inkscape:label="Feet">
    <path
       sodipodi:type="arc"
       style="fill:#555753;fill-opacity:1;stroke:#888a85;stroke-width:1;stroke-miterlimit:4;stroke-opacity:1;stroke-dasharray:none;stroke-dashoffset:0"
       id="path8326"
       sodipodi:cx="46"
       sodipodi:cy="59.5"
       sodipodi:rx="5"
       sodipodi:ry="2.5"
       d="m 41,59.5 a 5,2.5 0 0 1 10,0 l -5,0 z"
       sodipodi:start="3.1415927"
       sodipodi:end="6.2831853"
       transform="translate(-2,-0.5)" />
    <path
       sodipodi:type="arc"
       style="fill:#555753;fill-opacity:1;stroke:#888a85;stroke-width:1;stroke-miterlimit:4;stroke-opacity:1;stroke-dasharray:none;stroke-dashoffset:0"
       id="path8326-2"
       sodipodi:cx="46"
       sodipodi:cy="59.5"
       sodipodi:rx="5"
       sodipodi:ry="2.5"
       d="m 41,59.5 a 5,2.5 0 0 1 10,0 l -5,0 z"
       sodipodi:start="3.1415927"
       sodipodi:end="6.2831853"
       transform="translate(-24,-0.5)" />
  </g>
  <g
     inkscape:groupmode="layer"
     id="layer12"
     inkscape:label="Grill">
    <path
       style="fill:none;stroke:#888a85;stroke-width:1px;stroke-linecap:butt;stroke-linejoin:miter;stroke-opacity:1"
       d="m 26,40 -2,-3 18,0 -2,3"
       id="path8349"
       inkscape:connector-curvature="0" />
    <path
       style="fill:none;stroke:#888a85;stroke-width:1px;stroke-linecap:butt;stroke-linejoin:miter;stroke-opacity:1"
       d="m 26,44 -2,-3 18,0 -2,3"
       id="path8349-9"
       inkscape:connector-curvature="0" />
  </g>
  <g
     inkscape:groupmode="layer"
     id="layer14"
     inkscape:label="Smoke"
     style="display:inline">
    <path
       style="fill:#2e3436;fill-opacity:0.6255708;stroke:#888a85;stroke-width:0;stroke-miterlimit:4;stroke-opacity:1;stroke-dasharray:none;stroke-dashoffset:0"
       id="path8739"
       d="m 10.75026,104.23102 c 0.361117,-0.18064 0.733246,-0.33931 1.053008,-0.58996 0.273719,-0.1584 0.425537,-0.37323 0.56778,-0.64547 0.177921,-0.38376 0.287176,-0.78355 0.359734,-1.19857 0.103046,-0.54838 0.02106,-1.09698 -0.05614,-1.64218 -0.09916,-0.743906 -0.242491,-1.481468 -0.397254,-2.215655 -0.179452,-0.821684 -0.331052,-1.648449 -0.478873,-2.476358 -0.188314,-0.745383 -0.26157,-1.509483 -0.365309,-2.268699 -0.108215,-0.694528 -0.161017,-1.394674 -0.190195,-2.096373 -0.01905,-0.813058 0.138974,-1.592159 0.413142,-2.352802 0.305886,-0.779263 0.775983,-1.469323 1.255738,-2.148627 0.412127,-0.564766 0.775883,-1.160334 1.121373,-1.767604 0.21625,-0.489647 0.494811,-0.956275 0.633256,-1.476331 0.09605,-0.398408 0.193241,-0.792669 0.234142,-1.201058 0.0025,-0.453325 0.170915,-0.89718 0.146208,-1.350552 -0.0198,-0.44493 -0.05634,-0.88711 -0.123985,-1.327101 -0.06767,-0.401966 -0.08674,-0.811251 -0.205511,-1.202906 -0.145491,-0.475953 -0.304484,-0.947624 -0.454062,-1.422467 -0.1848,-0.490008 -0.387083,-0.970345 -0.610073,-1.443169 -0.304625,-0.551477 -0.444051,-1.157301 -0.592987,-1.761969 -0.157626,-0.727495 -0.0879,-1.45177 0.08372,-2.167057 0.186083,-0.666565 0.500727,-1.2855 0.813874,-1.899296 0.227989,-0.418081 0.482507,-0.821701 0.700131,-1.245359 0.03786,-0.06895 0.07572,-0.137892 0.113586,-0.206839 0.90482,-1.642232 3.227287,-0.362623 2.322467,1.279609 l 0,0 c -0.02855,0.05159 -0.0571,0.103177 -0.08565,0.154765 -0.218949,0.415145 -0.456759,0.819852 -0.690512,1.226762 -0.230533,0.447666 -0.466866,0.898064 -0.613865,1.381353 -0.110486,0.265239 -0.08563,0.569852 -0.06694,0.850558 0.10406,0.43316 0.185903,0.866301 0.415173,1.257861 0.273095,0.581061 0.522974,1.171913 0.740356,1.776569 0.159684,0.507569 0.331402,1.011143 0.483034,1.521144 0.128698,0.493761 0.206448,0.994297 0.268556,1.500426 0.08756,0.577331 0.137262,1.158631 0.154286,1.74252 -0.01336,0.546031 -0.104705,1.077517 -0.161426,1.619242 -0.06337,0.564016 -0.183431,1.114368 -0.326105,1.663391 -0.217446,0.711594 -0.538281,1.379566 -0.873787,2.042658 -0.388678,0.681218 -0.798626,1.349314 -1.259369,1.9846 -0.350483,0.496201 -0.708065,0.991253 -0.941396,1.556779 -0.176889,0.418995 -0.234782,0.852342 -0.243968,1.306006 0.02513,0.619646 0.07154,1.237719 0.168639,1.850845 0.09642,0.722529 0.168024,1.448538 0.347898,2.157482 0.142791,0.801335 0.288819,1.601557 0.463391,2.396644 0.166117,0.792568 0.320729,1.588515 0.428051,2.391381 0.115615,0.825547 0.19745,1.658797 0.03928,2.486037 -0.130895,0.70268 -0.32964,1.38726 -0.658184,2.02552 -0.338895,0.58543 -0.743828,1.12442 -1.324085,1.49275 -0.509422,0.35722 -1.051169,0.65579 -1.622354,0.9035 -1.7408942,0.69636 -2.7256924,-1.76564 -0.984799,-2.462 z"
       inkscape:connector-curvature="0" />
    <path
       style="fill:#2e3436;fill-opacity:0.6255708;stroke:#888a85;stroke-width:0;stroke-miterlimit:4;stroke-opacity:1;stroke-dasharray:none;stroke-dashoffset:0"
       id="path8741"
       d="m 16.326893,109.22043 c 0.543532,-0.66365 1.091775,-1.31612 1.544499,-2.04625 0.488903,-0.85493 0.899604,-1.76531 1.108129,-2.73256 0.1468,-0.68094 0.185587,-1.26876 0.256771,-1.96474 0.08939,-2.15789 -0.114556,-4.311876 -0.102548,-6.469266 0.09194,-2.237648 0.660633,-4.414335 1.356597,-6.530945 0.569793,-1.536826 1.313756,-3.004613 2.250868,-4.350496 0.05941,-0.08532 1.1893,-1.594784 1.297957,-1.740071 0.797853,-1.09578 1.67,-2.132879 2.617025,-3.101844 0.685707,-0.635253 1.476149,-1.140284 2.278427,-1.613367 0.538661,-0.314864 1.058806,-0.677111 1.478296,-1.142518 0.352266,-0.408445 0.658419,-0.856428 0.91632,-1.32983 0.205234,-0.519263 0.366644,-1.055051 0.537083,-1.586791 0.221069,-0.58436 0.412753,-1.17495 0.576198,-1.777951 0.121721,-0.417127 0.06675,-0.217004 0.166535,-0.59992 0.476123,-1.813542 3.040858,-1.140202 2.564735,0.673339 l 0,0 c -0.115627,0.437838 -0.05751,0.230431 -0.172626,0.622704 -0.17503,0.641319 -0.375093,1.272719 -0.610702,1.894213 -0.224321,0.69463 -0.423768,1.401747 -0.742429,2.060658 -0.373937,0.66648 -0.80138,1.304659 -1.315227,1.87259 -0.609646,0.623643 -1.288053,1.171926 -2.05224,1.59817 -0.602255,0.35443 -1.197916,0.726623 -1.72921,1.183324 -0.866422,0.884076 -1.660118,1.83408 -2.388706,2.835332 -0.400914,0.536066 -0.818879,1.059709 -1.204552,1.606843 -0.811695,1.151509 -1.452846,2.410997 -1.950138,3.728004 -0.61609,1.85183 -1.120708,3.758949 -1.222623,5.716865 -0.01889,2.243185 0.219173,4.484227 0.08811,6.727837 -0.10076,0.93883 -0.131297,1.49011 -0.34251,2.41003 -0.278216,1.21175 -0.794259,2.3548 -1.416916,3.42526 -0.506705,0.79323 -1.058551,1.50648 -1.665808,2.22237 -1.125,1.5 -3.24632,-0.091 -2.12132,-1.59099 z"
       inkscape:connector-curvature="0" />
    <path
       style="fill:#2e3436;fill-opacity:0.6255708;stroke:#888a85;stroke-width:0;stroke-miterlimit:4;stroke-opacity:1;stroke-dasharray:none;stroke-dashoffset:0"
       id="path8743"
       d="m 29.256543,104.47241 c -0.02184,-0.84239 0.02765,-1.68194 0.10733,-2.52012 0.120835,-1.32942 0.494492,-2.598183 1.007589,-3.823777 0.524524,-1.229167 1.380341,-2.231113 2.328845,-3.150361 0.616982,-0.604102 1.344088,-1.066321 2.029478,-1.58263 0.475901,-0.357565 0.863468,-0.798743 1.230391,-1.26251 0.359187,-0.439232 0.59594,-0.937444 0.738451,-1.482719 0.157774,-0.616504 0.22964,-1.24749 0.327785,-1.87452 0.111101,-0.695815 0.151342,-1.399934 0.226152,-2.100224 0.07384,-0.893074 0.218222,-1.778032 0.376681,-2.659395 0.152607,-0.938648 0.329664,-1.870774 0.600612,-2.7828 0.251573,-0.790907 0.586024,-1.547441 0.953423,-2.290068 0.0576,-0.106876 0.115195,-0.213752 0.172792,-0.320628 0.893652,-1.648336 3.224751,-0.384521 2.331099,1.263815 l 0,0 c -0.04251,0.07778 -0.08502,0.155551 -0.127536,0.233327 -0.302099,0.609695 -0.581163,1.22711 -0.790158,1.876167 -0.247992,0.814192 -0.387985,1.652389 -0.530615,2.49045 -0.147921,0.818769 -0.282436,1.640936 -0.349655,2.470847 -0.07961,0.744944 -0.122131,1.494048 -0.243881,2.233883 -0.117327,0.727125 -0.200722,1.460144 -0.393124,2.173645 -0.255016,0.879286 -0.63032,1.702181 -1.21466,2.416189 -0.510595,0.642212 -1.06284,1.245099 -1.722088,1.739842 -0.599906,0.444546 -1.229608,0.847647 -1.773399,1.365001 -0.694887,0.667709 -1.341188,1.377839 -1.728341,2.275479 -0.417413,0.974307 -0.712169,1.985457 -0.810452,3.045707 -0.07402,0.7535 -0.115623,1.50797 -0.09507,2.2654 0,1.875 -2.651651,1.875 -2.651651,0 z"
       inkscape:connector-curvature="0" />
    <path
       style="fill:#2e3436;fill-opacity:0.6255708;stroke:#888a85;stroke-width:0;stroke-miterlimit:4;stroke-opacity:1;stroke-dasharray:none;stroke-dashoffset:0"
       id="path8745"
       d="m 42.468496,102.69746 c 0.345716,-0.54716 0.509784,-1.19142 0.660434,-1.81465 0.219862,-0.990933 0.177626,-2.008252 0.155239,-3.015463 -0.0034,-0.95354 -0.100537,-1.902207 -0.159581,-2.853068 -0.08748,-1.18489 -0.07976,-2.363909 0.08802,-3.540115 0.179116,-1.067882 0.649241,-2.050952 1.115172,-3.018097 0.367909,-0.746073 0.747285,-1.486416 1.122895,-2.228626 0.318057,-0.69082 0.607798,-1.394411 0.845369,-2.117078 0.255252,-0.735752 0.397177,-1.50598 0.513641,-2.27429 0.100992,-0.785585 0.113338,-1.57878 0.124355,-2.36966 -0.05154,-0.741019 -0.08289,-1.484648 -0.157269,-2.223803 -0.08166,-0.813472 -0.133954,-1.629102 -0.26225,-2.437076 -0.104583,-0.699106 -0.206061,-1.397408 -0.324697,-2.094284 -0.108082,-0.618868 -0.139834,-1.240586 -0.07891,-1.865286 0.06017,-0.411672 0.0822,-0.826921 0.142223,-1.238254 0.0573,-0.262972 0.101039,-0.52769 0.125911,-0.795578 0.182535,-1.866094 2.82159,-1.607951 2.639056,0.258143 l 0,0 c -0.03297,0.326824 -0.07746,0.652144 -0.149335,0.973003 -0.09855,0.341633 -0.02731,0.731198 -0.120478,1.077442 -0.0449,0.383425 -0.0058,0.764497 0.0556,1.145665 0.120653,0.709224 0.224235,1.419978 0.330742,2.131393 0.13151,0.858453 0.200182,1.722763 0.281228,2.587046 0.07991,0.837485 0.127548,1.678843 0.169566,2.518935 -0.01299,0.912831 -0.0312,1.828196 -0.154713,2.734127 -0.14161,0.915282 -0.314328,1.831431 -0.618259,2.708494 -0.283029,0.845088 -0.615506,1.672172 -0.995846,2.478394 -0.36797,0.727109 -0.739527,1.452438 -1.100403,2.183107 -0.34996,0.724872 -0.722764,1.457808 -0.880259,2.252735 -0.152665,0.992507 -0.13079,1.989295 -0.06478,2.98978 0.06087,0.985954 0.160827,1.969764 0.164007,2.958516 0.02713,1.240654 0.05546,2.491778 -0.231753,3.708898 -0.230427,0.92045 -0.499113,1.85122 -1.02862,2.65052 -1.040063,1.56009 -3.24637,0.0892 -2.206307,-1.47087 z"
       inkscape:connector-curvature="0" />
    <path
       style="fill:#2e3436;fill-opacity:0.6255708;stroke:#888a85;stroke-width:0;stroke-miterlimit:4;stroke-opacity:1;stroke-dasharray:none;stroke-dashoffset:0"
       id="path8747"
       d="m 29.216885,90.940825 c 0.305058,-0.702409 0.538516,-1.432546 0.769463,-2.161776 0.356795,-1.214855 0.634034,-2.450439 0.972127,-3.670899 0.462359,-1.510088 0.895991,-3.028626 1.329385,-4.54722 0.421393,-1.61499 1.020867,-3.163756 1.77147,-4.651713 0.463861,-0.928545 1.205194,-1.651273 1.885591,-2.41614 0.493382,-0.542781 0.92591,-1.138412 1.336109,-1.745541 0.436285,-0.65202 0.84637,-1.322173 1.176818,-2.034288 0.254078,-0.565414 0.548593,-1.114884 0.770405,-1.694306 0.142508,-0.345192 0.283474,-0.693913 0.372732,-1.057244 0.08014,-0.425548 0.173807,-0.847597 0.21973,-1.278728 0.03551,-0.430836 0.04089,-0.863341 0.04402,-1.295385 1.85e-4,-0.06427 4.56e-4,-0.128541 5.56e-4,-0.192812 2.84e-4,-0.184026 -1.96e-4,-0.368053 -5.62e-4,-0.552079 -3.73e-4,-0.186774 0.02374,-0.233807 -0.0096,-0.15835 -0.02714,-0.115077 -0.01144,-0.04544 -0.04491,-0.209395 -0.374863,-1.837145 2.223253,-2.367281 2.598116,-0.530136 l 0,0 c 0.04646,0.227769 0.02147,0.101414 0.07386,0.379281 0.04317,0.427026 0.03862,0.854 0.03407,1.283134 -0.004,0.524037 -0.01196,1.048713 -0.06043,1.570885 -0.06423,0.555856 -0.173283,1.10313 -0.288476,1.650442 -0.123573,0.462843 -0.281874,0.916233 -0.469962,1.356987 -0.250313,0.630921 -0.552802,1.239437 -0.83926,1.854471 -0.395202,0.834899 -0.863896,1.630649 -1.382262,2.395363 -0.477682,0.702778 -0.979495,1.392833 -1.551789,2.022337 -0.528786,0.591954 -1.11839,1.141717 -1.498586,1.848264 -0.677973,1.336487 -1.210788,2.729985 -1.587876,4.182741 -0.43162,1.512 -0.862619,3.024224 -1.323845,4.527526 -0.346898,1.251508 -0.627856,2.519574 -0.999721,3.76384 -0.250852,0.791132 -0.506016,1.582734 -0.835231,2.345539 -0.696358,1.740894 -3.158354,0.756096 -2.461996,-0.984798 z"
       inkscape:connector-curvature="0" />
    <path
       style="fill:#2e3436;fill-opacity:0.6255708;stroke:#888a85;stroke-width:0;stroke-miterlimit:4;stroke-opacity:1;stroke-dasharray:none;stroke-dashoffset:0"
       id="path8749"
       d="M 5.0630876,107.09911 C 4.6559283,106.45378 4.4294098,105.71492 4.1647654,105.00356 3.8102115,104.19062 3.6526369,103.32443 3.5028492,102.45719 3.3316122,101.64663 3.3281355,100.82697 3.3654198,100.00422 3.4394332,99.085324 3.5621762,98.175953 3.769978,97.277817 3.9953579,96.332514 4.3704406,95.439355 4.7639369,94.554864 5.0833152,93.883078 5.3800685,93.20345 5.633941,92.504472 5.8324309,91.97134 5.8766363,91.410561 5.9052234,90.848109 5.8905056,90.069003 5.8169752,89.293502 5.6961497,88.52409 5.5597233,87.679679 5.4418354,86.832378 5.3062138,85.987883 5.1706413,85.095014 5.0702576,84.196382 4.9835065,83.297453 4.8716761,82.478609 4.7756721,81.658296 4.7224395,80.833487 4.6864686,80.144743 4.5983489,79.460786 4.5565038,78.772044 c -0.036169,-0.758511 -0.063138,-1.518259 -0.025909,-2.276962 0.071057,-0.868726 0.3214958,-1.699792 0.571339,-2.529264 0.2492016,-0.698633 0.4824412,-1.403673 0.7770873,-2.084725 0.204258,-0.546988 0.4830931,-1.062902 0.6569398,-1.621107 0.1914491,-0.44723 0.3502467,-0.905579 0.5077107,-1.365387 0.1048186,-0.399318 0.256093,-0.78394 0.3750362,-1.178725 0.1142113,-0.371703 0.1883421,-0.746178 0.2256674,-1.132578 0.044463,-0.300701 0.089294,-0.60115 0.1280341,-0.902637 0.2408278,-1.859469 2.8705153,-1.518887 2.6296873,0.340582 l 0,0 c -0.03628,0.278283 -0.07375,0.556318 -0.119967,0.83317 -0.05954,0.557533 -0.164618,1.103192 -0.3286153,1.639927 -0.1310123,0.421569 -0.2845257,0.835518 -0.4019501,1.261496 -0.1525455,0.443199 -0.2979435,0.889592 -0.491659,1.317144 -0.2098708,0.639285 -0.4994919,1.243934 -0.7500823,1.867574 -0.2569092,0.583545 -0.4468778,1.192959 -0.6689944,1.790292 -0.1895148,0.628716 -0.3920601,1.254074 -0.4626353,1.910774 -0.043066,0.65607 0.00445,1.315388 0.025204,1.97167 0.040489,0.68543 0.1323811,1.365801 0.1653206,2.0515 0.050041,0.796552 0.1503316,1.587721 0.2542615,2.378831 0.080863,0.844077 0.1752012,1.687815 0.301726,2.526233 0.1348938,0.849313 0.2557529,1.700807 0.3920901,2.54993 0.1444678,0.94978 0.2403445,1.907591 0.2363203,2.869447 -0.045461,0.8232 -0.136693,1.642614 -0.4270826,2.421182 -0.2753853,0.756932 -0.5930716,1.494963 -0.939402,2.222322 -0.3257049,0.732043 -0.6459004,1.466909 -0.834743,2.249226 -0.1753951,0.738852 -0.2680429,1.48763 -0.337592,2.243521 -0.02927,0.63228 -0.039883,1.25784 0.1015901,1.88084 0.1218536,0.70685 0.2353816,1.4141 0.5347306,2.07432 0.1737382,0.46905 0.3706572,0.98432 0.5337908,1.42748 1.125,1.5 -0.9963203,3.09099 -2.1213203,1.59099 z"
       inkscape:connector-curvature="0" />
  </g>
  <g
     inkscape:groupmode="layer"
     id="layer13"
     inkscape:label="Destroyed">
    <path
       style="fill:#4e9a06;fill-opacity:1;stroke:#73d216;stroke-width:0;stroke-miterlimit:4;stroke-opacity:1;stroke-dasharray:none;stroke-dashoffset:0"
       d="m 9.84375,100 -3.0081771,2.91767 -4.3585479,4.69327 c -0.7274933,0.295 -0.4121152,1.47309 -0.2965724,2.21958 0.7495796,4.27749 4.5611431,7.75636 8.8873284,8.11855 4.062246,0.47547 8.250517,-1.82627 10.017968,-5.51634 0.340599,-1.10247 1.616997,-2.7959 0.268513,-3.55473 L 18.6875,105.5 15.481376,108.57697 13.8125,110 11.260592,103.33895 c -0.439638,-1.0516 -0.978677,-2.05847 -1.385592,-3.1202 z"
       id="path8628"
       inkscape:connector-curvature="0"
       sodipodi:nodetypes="ccccccccccccc" />
    <path
       style="font-size:medium;font-style:normal;font-variant:normal;font-weight:normal;font-stretch:normal;text-indent:0;text-align:start;text-decoration:none;line-height:normal;letter-spacing:normal;word-spacing:normal;text-transform:none;direction:ltr;block-progression:tb;writing-mode:lr-tb;text-anchor:start;baseline-shift:baseline;color:#000000;fill:#73d216;fill-opacity:1;fill-rule:nonzero;stroke:none;stroke-width:3;marker:none;visibility:visible;display:inline;overflow:visible;enable-background:accumulate;font-family:Sans;-inkscape-font-specification:Sans"
       d="m 1.46875,106.5 0.0625,0.0625 c -0.3242957,0.24684 -0.67708056,0.50017 -0.8125,0.8125 -0.19535123,0.45055 -0.22060995,0.85146 -0.21875,1.1875 0.00372,0.67208 0.14303918,1.21275 0.1875,1.5 l 0,0.0312 c 0.8731556,4.98268 5.1830621,8.90764 10.21875,9.34375 0.01027,8.9e-4 0.02097,-8.6e-4 0.03125,0 4.725148,0.539 9.443311,-2.04981 11.5,-6.34375 l 0.0625,-0.125 0.03125,-0.0937 c 0.07825,-0.25329 0.478257,-1.01437 0.75,-1.9375 0.135871,-0.46156 0.276819,-1.0236 0.125,-1.6875 l -3.15625,0.65625 0.15625,0.15625 c -0.0055,0.0261 0.0099,-0.002 0,0.0312 -0.10119,0.34375 -0.403867,0.97875 -0.65625,1.6875 l -0.03125,0 c -1.473621,3.07661 -5.079913,5.08415 -8.46875,4.6875 l -0.03125,0 -0.03125,0 c -3.5936363,-0.30086 -6.894214,-3.32549 -7.53125,-6.875 -0.00205,-0.0132 0.00206,-0.0181 0,-0.0312 -0.060837,-0.38919 -0.1094889,-0.70806 -0.125,-0.90625 z"
       id="rect7801-8"
       inkscape:connector-curvature="0"
       sodipodi:nodetypes="ccsscccccccsccccccccccccc" />
    <path
       inkscape:connector-curvature="0"
       style="fill:none;stroke:#555753;stroke-width:1px;stroke-linecap:butt;stroke-linejoin:miter;stroke-opacity:1;display:inline"
       d="m 40.875,114.62502 3.125,4.375"
       id="path8317-4" />
    <path
       style="fill:none;stroke:#555753;stroke-width:1px;stroke-linecap:butt;stroke-linejoin:miter;stroke-opacity:1;display:inline"
       d="m 26,109.00002 -4,10"
       id="path8319-8"
       inkscape:connector-curvature="0"
       sodipodi:nodetypes="cc" />
    <path
       style="fill:none;stroke:#555753;stroke-width:1px;stroke-linecap:butt;stroke-linejoin:miter;stroke-opacity:1;display:inline"
       d="m 22,119.00002 9,-10"
       id="path8321-0"
       inkscape:connector-curvature="0" />
    <path
       inkscape:connector-curvature="0"
       style="fill:none;stroke:#555753;stroke-width:1px;stroke-linecap:butt;stroke-linejoin:miter;stroke-opacity:1;display:inline"
       d="m 44,119.00002 -5.75,-3.375"
       id="path8525" />
    <path
       sodipodi:type="arc"
       style="fill:#555753;fill-opacity:1;stroke:#888a85;stroke-width:1;stroke-miterlimit:4;stroke-opacity:1;stroke-dasharray:none;stroke-dashoffset:0;display:inline"
       id="path8326-5"
       sodipodi:cx="46"
       sodipodi:cy="59.5"
       sodipodi:rx="5"
       sodipodi:ry="2.5"
       d="m 41,59.5 a 5,2.5 0 0 1 10,0 l -5,0 z"
       sodipodi:start="3.1415927"
       sodipodi:end="6.2831853"
       transform="translate(-2,59.500015)" />
    <path
       sodipodi:type="arc"
       style="fill:#555753;fill-opacity:1;stroke:#888a85;stroke-width:1;stroke-miterlimit:4;stroke-opacity:1;stroke-dasharray:none;stroke-dashoffset:0;display:inline"
       id="path8326-2-3"
       sodipodi:cx="46"
       sodipodi:cy="59.5"
       sodipodi:rx="5"
       sodipodi:ry="2.5"
       d="m 41,59.5 a 5,2.5 0 0 1 10,0 l -5,0 z"
       sodipodi:start="3.1415927"
       sodipodi:end="6.2831853"
       transform="translate(-24,59.500015)" />
    <g
       style="display:inline"
       id="g8527"
       inkscape:transform-center-x="-4.9250244"
       inkscape:transform-center-y="-5.1286171"
       transform="matrix(0.9493731,0.31415078,-0.31415078,0.9493731,35.430055,-3.4760997)">
      <path
         id="path8521"
         d="m 40,109.00002 -0.625,4.5"
         style="fill:none;stroke:#555753;stroke-width:1px;stroke-linecap:butt;stroke-linejoin:miter;stroke-opacity:1"
         inkscape:connector-curvature="0" />
      <path
         id="path8323-6"
         d="M 36.875,113.875 35,109.00002"
         style="fill:none;stroke:#555753;stroke-width:1px;stroke-linecap:butt;stroke-linejoin:miter;stroke-opacity:1"
         inkscape:connector-curvature="0" />
      <path
         sodipodi:nodetypes="ccccccccccsccccccscccccccccccsccccccc"
         inkscape:connector-curvature="0"
         id="rect8314-0"
         d="m 18.28125,91.4375 c 0.327817,0.876286 0.470464,1.816064 0.53125,2.745307 -0.02821,0.986322 0.248532,2.019038 1,2.692193 0.338814,0.632335 0.08413,1.414812 -0.34375,1.9375 0.01412,0.987675 0.172304,2.03257 0.71875,2.875 0.269762,0.48583 1.03376,1.03102 0.5625,1.625 -0.631072,0.65102 -1.700203,0.56645 -2.28125,1.28125 -0.523519,0.8582 -0.283771,1.92265 -0.34375,2.875 0.05062,0.47066 -0.305333,1.1041 0.09375,1.46875 1.065406,0.006 2.15962,0.0309 3.235921,0.0312 7.587421,0.009 15.174811,0.0426 22.762258,0.0312 1.261024,0 2.522047,0 3.783071,0 -0.239583,-1.82292 -0.479167,-3.64583 -0.71875,-5.46875 -0.279552,-0.38444 -1.059621,-0.26335 -1.0625,-0.875 -0.56701,-0.93813 -1.128143,-1.90188 -1.9375,-2.65625 -0.507583,-0.633655 -1.257729,-1.144629 -1.567101,-1.898007 0.0028,-0.340201 0.191861,-0.706844 0.02276,-1.060592 -0.43159,-0.905171 -1.656056,-0.813155 -2.465489,-0.542105 -0.866794,0.300793 -1.829069,0.288308 -2.610803,-0.234068 -0.753278,-0.494324 -1.574669,-0.862906 -2.441871,-1.108978 -0.476617,-0.246212 -1.075634,-0.463476 -1.3125,-0.96875 -0.123566,-0.343434 0.42778,-0.384505 0.25,-0.71875 C 33.403735,92.87914 32.334507,93.179105 31.443233,93.011775 29.900651,92.85954 28.35408,92.746781 26.810687,92.600394 25.121324,92.457215 23.439129,92.238202 21.75,92.09375 20.757116,91.904222 19.803178,91.572005 18.854615,91.234147 18.612165,91.185963 18.377682,91.065197 18.125,91.09375 c 0.05208,0.114583 0.104167,0.229167 0.15625,0.34375 z"
         style="fill:#555753;fill-opacity:1;stroke:#888a85;stroke-width:3;stroke-miterlimit:4;stroke-opacity:1;stroke-dasharray:none;stroke-dashoffset:0" />
      <path
         sodipodi:nodetypes="ccccccccc"
         inkscape:connector-curvature="0"
         id="path8349-1"
         d="m 40,100 1.75,-2.625 C 41.72369,97.35297 41.7023,97.32005 41.65625,97.28125 41.550297,97.26423 41.65105,97.27755 41.46875,97.25 41.43904,97.2411 41.42306,97.22933 41.375,97.21875 41.29995,97.21005 41.230776,97.19547 41.15625,97.1875 40.731278,97.14204 40.333556,97.031011 39.90625,97 L 24,97 l 2,3"
         style="fill:none;stroke:#888a85;stroke-width:1px;stroke-linecap:butt;stroke-linejoin:miter;stroke-opacity:1" />
      <path
         sodipodi:nodetypes="cccc"
         inkscape:connector-curvature="0"
         id="path8349-9-1"
         d="m 40,104 2,-3 -18,0 2,3"
         style="fill:none;stroke:#888a85;stroke-width:1px;stroke-linecap:butt;stroke-linejoin:miter;stroke-opacity:1" />
    </g>
  </g>
</svg>
